<?xml version="1.0" standalone="no"?>
<!DOCTYPE svg PUBLIC "-//W3C//DTD SVG 1.1//EN" "http://www.w3.org/Graphics/SVG/1.1/DTD/svg11.dtd" >
<svg xmlns="http://www.w3.org/2000/svg" xmlns:xlink="http://www.w3.org/1999/xlink" version="1.1">
<metadata>
Created by FontForge 20141024 at Wed Jun  3 17:01:15 2015
 By System Administrator
 The digitally encoded machine readable software for producing the
 Typefaces licensed to you is copyrighted (c) 1991, 2002 Adobe Systems.
 All Rights Reserved. This software is the property of Adobe Systems
 Incorporated and its licensors, and may not be reproduced, used, 
 displayed, modified, disclosed or transferred without the express 
 written approval of Adobe.
 
 The digitally encoded machine readable outline data for producing the Typefaces 
 provided as part of your laser printer is copyrighted (c) 1981, 2002 Heidelberger Druckmaschinen AG. 
 All rights reserved. This data is the property of Heidelberger Druckmaschinen AG, 
 and may not be reproduced, used, displayed, modified, disclosed or transferred 
 without the express written approval of Heidelberger Druckmaschinen AG. 
</metadata>
<defs>
<font id="FrutigerLTStd-Cn" horiz-adv-x="480" >
  <font-face 
    font-family="Frutiger LT Std"
    font-weight="400"
    font-stretch="condensed"
    units-per-em="1000"
    panose-1="2 11 6 6 2 2 4 2 2 4"
    ascent="750"
    descent="-250"
    x-height="510"
    cap-height="698"
    bbox="-105 -250 1000 929"
    underline-thickness="50"
    underline-position="-50"
    stemh="68"
    stemv="84"
    unicode-range="U+0020-FB02"
  />
<missing-glyph horiz-adv-x="500" 
d="M0 0v700h500v-700h-500zM250 395l170 255h-340zM280 350l170 -255v510zM80 50h340l-170 255zM50 605v-510l170 255z" />
    <glyph glyph-name="f_i" unicode="fi" horiz-adv-x="500" 
d="M347 0v510h84v-510h-84zM343 720h92v-100h-92v100zM97 0v442h-81v68h81v114c0 83 38 138 127 138c23 0 47 -3 66 -8v-72c-10 8 -28 12 -48 12c-47 0 -61 -26 -61 -77v-107h92v-68h-92v-442h-84z" />
    <glyph glyph-name="f_l" unicode="fl" horiz-adv-x="500" 
d="M347 0v750h84v-750h-84zM97 0v442h-81v68h81v114c0 83 38 138 127 138c23 0 47 -3 66 -8v-72c-10 8 -28 12 -48 12c-47 0 -61 -26 -61 -77v-107h92v-68h-92v-442h-84z" />
    <glyph glyph-name=".notdef" horiz-adv-x="500" 
d="M0 0v700h500v-700h-500zM250 395l170 255h-340zM280 350l170 -255v510zM80 50h340l-170 255zM50 605v-510l170 255z" />
    <glyph glyph-name="space" unicode=" " horiz-adv-x="240" 
 />
    <glyph glyph-name="exclam" unicode="!" horiz-adv-x="352" 
d="M212 186h-72l-14 512h100zM128 0v112h96v-112h-96z" />
    <glyph glyph-name="quotedbl" unicode="&#x22;" horiz-adv-x="500" 
d="M289 518v232h72v-232h-72zM139 518v232h72v-232h-72z" />
    <glyph glyph-name="numbersign" unicode="#" 
d="M191 426l-21 -154h119l21 154h-119zM72 0l31 218h-99v54h106l21 154h-99v54h106l30 218h60l-30 -218h119l30 218h60l-30 -218h99v-54h-106l-21 -154h99v-54h-106l-31 -218h-60l31 218h-119l-31 -218h-60z" />
    <glyph glyph-name="dollar" unicode="$" 
d="M261 291v-209c41 18 64 56 64 97c0 43 -9 72 -64 112zM221 428v193c-42 -15 -66 -51 -66 -96c0 -35 11 -59 66 -97zM221 -94v88c-3 -1 -8 -1 -12 -1c-51 0 -104 12 -141 30v91c40 -24 92 -45 133 -45c7 0 13 0 20 1v249l-29 18c-100 62 -129 106 -129 193
c0 101 68 160 158 173v82h40v-80c45 -1 92 -10 122 -23v-85c-33 20 -76 32 -117 32h-5v-227c7 -5 16 -11 26 -17c93 -55 130 -114 130 -194c0 -97 -53 -176 -156 -193v-92h-40z" />
    <glyph glyph-name="percent" unicode="%" horiz-adv-x="814" 
d="M58 512c0 132 55 193 139 193s139 -61 139 -193s-55 -193 -139 -193s-139 61 -139 193zM130 512c0 -93 21 -133 67 -133s67 40 67 133s-21 133 -67 133s-67 -40 -67 -133zM478 186c0 132 55 193 139 193s139 -61 139 -193s-55 -193 -139 -193s-139 61 -139 193zM550 186
c0 -93 21 -133 67 -133s67 40 67 133s-21 133 -67 133s-67 -40 -67 -133zM219 -33l313 764h64l-313 -764h-64z" />
    <glyph glyph-name="ampersand" unicode="&#x26;" horiz-adv-x="611" 
d="M391 132l-154 208c-52 -34 -93 -83 -93 -147c0 -71 49 -128 128 -128c46 0 97 33 119 67zM593 0h-104l-55 77c-35 -56 -103 -84 -173 -84c-134 0 -205 88 -205 193c0 98 47 162 138 212c-31 44 -71 102 -71 159c0 91 67 148 161 148c95 0 157 -62 157 -145
c0 -62 -38 -126 -133 -180l129 -179c26 57 38 119 42 191h84c-6 -88 -32 -182 -78 -254zM361 561c0 39 -25 76 -76 76c-47 0 -82 -30 -82 -75c0 -36 36 -93 64 -127c69 43 94 78 94 126z" />
    <glyph glyph-name="quoteright" unicode="&#x2019;" horiz-adv-x="240" 
d="M49 518l50 232h92l-66 -232h-76z" />
    <glyph glyph-name="parenleft" unicode="(" horiz-adv-x="278" 
d="M265 -134l-67 -6c-84 143 -139 311 -139 448s55 305 139 448l67 -6c-95 -185 -122 -297 -122 -442s27 -257 122 -442z" />
    <glyph glyph-name="parenright" unicode=")" horiz-adv-x="278" 
d="M80 -140l-67 6c95 185 122 297 122 442s-27 257 -122 442l67 6c84 -143 139 -311 139 -448s-55 -305 -139 -448z" />
    <glyph glyph-name="asterisk" unicode="*" horiz-adv-x="500" 
d="M275 620l121 51l24 -72l-128 -29l86 -99l-62 -44l-66 112l-68 -112l-61 44l87 99l-128 29l23 72l120 -52l-11 131h76z" />
    <glyph glyph-name="plus" unicode="+" horiz-adv-x="600" 
d="M47 219v68h219v219h68v-219h219v-68h-219v-219h-68v219h-219z" />
    <glyph glyph-name="comma" unicode="," horiz-adv-x="240" 
d="M26 -120l50 232h92l-66 -232h-76z" />
    <glyph glyph-name="hyphen" unicode="-" horiz-adv-x="296" 
d="M40 245v72h216v-72h-216z" />
    <glyph glyph-name="period" unicode="." horiz-adv-x="240" 
d="M72 0v112h96v-112h-96z" />
    <glyph glyph-name="slash" unicode="/" horiz-adv-x="259" 
d="M0 -7l185 712h74l-185 -712h-74z" />
    <glyph glyph-name="zero" unicode="0" 
d="M125 349c0 -196 35 -284 115 -284s115 88 115 284s-35 284 -115 284s-115 -88 -115 -284zM37 349c0 233 72 356 203 356s203 -123 203 -356s-72 -356 -203 -356s-203 123 -203 356z" />
    <glyph glyph-name="one" unicode="1" 
d="M202 0v597l-89 -100l-46 65l143 136h80v-698h-88z" />
    <glyph glyph-name="two" unicode="2" 
d="M37 0v77c177 203 265 342 265 435c0 63 -34 117 -103 117c-40 0 -94 -22 -134 -54l-11 88c60 29 121 42 164 42c108 0 176 -80 176 -176c0 -122 -109 -302 -260 -453h270v-76h-367z" />
    <glyph glyph-name="three" unicode="3" 
d="M37 19l8 86c46 -25 94 -40 133 -40c76 0 143 55 143 140c0 71 -51 119 -136 119h-65v72h36c109 0 163 51 163 123c0 69 -51 114 -124 114c-37 0 -88 -15 -128 -39l-8 82c45 21 99 29 153 29c109 0 195 -56 195 -173c0 -96 -55 -149 -129 -164v-2c86 -11 135 -84 135 -172
c0 -110 -75 -201 -227 -201c-51 0 -111 11 -149 26z" />
    <glyph glyph-name="four" unicode="4" 
d="M297 0v158h-274v84l251 456h107v-468h76v-72h-76v-158h-84zM297 230v380h-2l-198 -380h200z" />
    <glyph glyph-name="five" unicode="5" 
d="M61 21l4 81c30 -18 81 -37 121 -37c89 0 145 67 145 158c0 95 -54 147 -148 147c-35 0 -67 -8 -115 -23v351h321v-72h-237v-195c22 7 53 11 79 11c103 0 192 -70 192 -208c0 -145 -76 -241 -225 -241c-45 0 -96 10 -137 28z" />
    <glyph glyph-name="six" unicode="6" 
d="M134 218c0 -76 36 -153 111 -153c74 0 110 77 110 153c0 74 -36 152 -110 152c-75 0 -111 -78 -111 -152zM412 685l-4 -82c-31 19 -69 30 -107 30c-116 0 -180 -112 -180 -277h2c24 54 75 86 138 86c118 0 182 -108 182 -218c0 -154 -88 -231 -201 -231
c-149 0 -205 126 -205 328c0 256 85 384 259 384c42 0 85 -8 116 -20z" />
    <glyph glyph-name="seven" unicode="7" 
d="M111 0l229 622h-284v76h368v-83l-216 -615h-97z" />
    <glyph glyph-name="eight" unicode="8" 
d="M139 529c0 -47 27 -97 109 -133c55 39 93 87 93 139c0 51 -43 98 -101 98c-57 0 -101 -46 -101 -104zM125 194c0 -69 45 -129 121 -129c64 0 109 51 109 123c0 64 -34 104 -121 144c-88 -48 -109 -86 -109 -138zM37 184c0 89 51 146 131 178c-85 41 -117 113 -117 173
c0 86 67 170 189 170s189 -84 189 -170c0 -60 -32 -132 -116 -173c79 -32 130 -89 130 -178c0 -108 -77 -191 -203 -191s-203 83 -203 191z" />
    <glyph glyph-name="nine" unicode="9" 
d="M125 480c0 -74 36 -152 110 -152c75 0 111 78 111 152c0 76 -36 153 -111 153c-74 0 -110 -77 -110 -153zM68 13l4 82c31 -19 69 -30 107 -30c116 0 180 112 180 277h-2c-24 -54 -75 -86 -138 -86c-118 0 -182 108 -182 218c0 154 88 231 201 231
c149 0 205 -126 205 -328c0 -256 -85 -384 -259 -384c-42 0 -85 8 -116 20z" />
    <glyph glyph-name="colon" unicode=":" horiz-adv-x="240" 
d="M72 398v112h96v-112h-96zM72 0v112h96v-112h-96z" />
    <glyph glyph-name="semicolon" unicode=";" horiz-adv-x="240" 
d="M26 -120l50 232h92l-66 -232h-76zM72 398v112h96v-112h-96z" />
    <glyph glyph-name="less" unicode="&#x3c;" horiz-adv-x="600" 
d="M47 221v64l506 228v-64l-430 -196l430 -196v-64z" />
    <glyph glyph-name="equal" unicode="=" horiz-adv-x="600" 
d="M47 320v68h506v-68h-506zM47 118v68h506v-68h-506z" />
    <glyph glyph-name="greater" unicode="&#x3e;" horiz-adv-x="600" 
d="M47 -7v64l430 196l-430 196v64l506 -228v-64z" />
    <glyph glyph-name="question" unicode="?" horiz-adv-x="444" 
d="M76 595l-4 82c38 17 88 28 129 28c111 0 183 -61 183 -172c0 -47 -17 -101 -51 -152l-58 -85c-26 -36 -31 -51 -31 -115h-76c0 91 7 119 68 195c44 55 60 91 60 140c0 67 -45 113 -106 113c-35 0 -82 -18 -114 -34zM158 0v112h96v-112h-96z" />
    <glyph glyph-name="at" unicode="@" horiz-adv-x="800" 
d="M270 291c0 -59 30 -94 71 -94c96 0 163 126 163 207c0 55 -32 88 -78 88c-64 0 -156 -84 -156 -201zM617 536l-85 -269c-6 -16 -10 -34 -10 -48c0 -12 6 -22 22 -22c73 0 144 97 144 210c0 143 -108 234 -266 234c-185 0 -310 -125 -310 -292s125 -292 288 -292
c132 0 210 39 265 105h62c-63 -106 -182 -169 -327 -169c-197 0 -356 159 -356 356s159 356 378 356c188 0 334 -133 334 -298c0 -168 -141 -270 -225 -270c-43 0 -70 20 -79 60h-2c-38 -41 -78 -60 -130 -60c-84 0 -126 73 -126 148c0 128 92 267 230 267
c46 0 88 -28 109 -76l20 60h64z" />
    <glyph glyph-name="A" unicode="A" horiz-adv-x="574" 
d="M242 698h96l228 -698h-92l-56 182h-266l-56 -182h-88zM176 258h219l-107 348h-2z" />
    <glyph glyph-name="B" unicode="B" horiz-adv-x="519" 
d="M77 0v698h177c135 0 194 -74 194 -177c0 -76 -45 -135 -115 -155v-2c76 -11 130 -75 130 -173c0 -97 -66 -191 -218 -191h-168zM165 626v-230h52c98 0 143 45 143 120c0 60 -36 110 -128 110h-67zM165 324v-252h75c94 0 135 59 135 125c0 72 -40 127 -125 127h-85z" />
    <glyph glyph-name="C" unicode="C" horiz-adv-x="537" 
d="M489 102v-88c-42 -13 -86 -21 -127 -21c-221 0 -314 168 -314 357c0 218 127 355 309 355c50 0 100 -9 132 -25v-86c-38 24 -82 35 -131 35c-114 0 -218 -91 -218 -261c0 -180 72 -299 224 -299c45 0 89 12 125 33z" />
    <glyph glyph-name="D" unicode="D" horiz-adv-x="574" 
d="M67 0v698h152c93 0 146 -22 186 -50c62 -43 129 -131 129 -288c0 -202 -96 -360 -358 -360h-109zM155 622v-546h53c154 0 234 105 234 284c0 146 -62 262 -234 262h-53z" />
    <glyph glyph-name="E" unicode="E" horiz-adv-x="463" 
d="M77 0v698h325v-76h-237v-222h226v-76h-226v-248h250v-76h-338z" />
    <glyph glyph-name="F" unicode="F" horiz-adv-x="426" 
d="M77 0v698h312v-76h-224v-222h213v-76h-213v-324h-88z" />
    <glyph glyph-name="G" unicode="G" horiz-adv-x="612" 
d="M535 384v-355c-41 -15 -111 -36 -173 -36c-221 0 -314 168 -314 357c0 218 127 355 309 355c60 0 116 -8 164 -31v-88c-53 27 -112 43 -163 43c-114 0 -218 -91 -218 -261c0 -180 72 -299 224 -299c28 0 64 7 87 19v220h-117v76h201z" />
    <glyph glyph-name="H" unicode="H" horiz-adv-x="574" 
d="M77 0v698h88v-298h244v298h88v-698h-88v324h-244v-324h-88z" />
    <glyph glyph-name="I" unicode="I" horiz-adv-x="242" 
d="M77 0v698h88v-698h-88z" />
    <glyph glyph-name="J" unicode="J" horiz-adv-x="315" 
d="M23 0v87c15 -4 32 -10 49 -10c60 0 88 38 88 111v510h88v-515c0 -111 -47 -190 -152 -190c-23 0 -50 4 -73 7z" />
    <glyph glyph-name="K" unicode="K" horiz-adv-x="519" 
d="M67 0v698h88v-303h2l231 303h105l-262 -330l284 -368h-114l-244 338h-2v-338h-88z" />
    <glyph glyph-name="L" unicode="L" horiz-adv-x="407" 
d="M77 0v698h88v-622h229v-76h-317z" />
    <glyph glyph-name="M" unicode="M" horiz-adv-x="778" 
d="M77 0v698h136l175 -555h2l179 555h132v-698h-84v602h-2l-198 -602h-64l-190 602h-2v-602h-84z" />
    <glyph glyph-name="N" unicode="N" horiz-adv-x="612" 
d="M77 0v698h109l263 -576h2v576h84v-698h-109l-263 572h-2v-572h-84z" />
    <glyph glyph-name="O" unicode="O" horiz-adv-x="612" 
d="M48 342c0 241 97 363 262 363c155 0 254 -133 254 -349c0 -241 -97 -363 -262 -363c-155 0 -254 133 -254 349zM140 342c0 -141 44 -277 162 -277c92 0 170 76 170 291c0 141 -44 277 -162 277c-92 0 -170 -76 -170 -291z" />
    <glyph glyph-name="P" unicode="P" horiz-adv-x="481" 
d="M77 0v698h168c70 0 114 -19 151 -54c35 -34 55 -83 55 -144c0 -136 -79 -208 -227 -208h-59v-292h-88zM165 626v-262h48c107 0 146 50 146 128c0 96 -54 134 -144 134h-50z" />
    <glyph glyph-name="Q" unicode="Q" horiz-adv-x="612" 
d="M550 -130h-108l-105 127c-5 -1 -11 -3 -17 -3s-12 -1 -18 -1c-155 0 -254 133 -254 349c0 241 97 363 262 363c155 0 254 -133 254 -349c0 -178 -53 -291 -148 -338zM140 342c0 -141 44 -277 162 -277c92 0 170 76 170 291c0 141 -44 277 -162 277
c-92 0 -170 -76 -170 -291z" />
    <glyph glyph-name="R" unicode="R" horiz-adv-x="519" 
d="M77 0v698h179c74 0 115 -18 147 -48c36 -34 52 -82 52 -133c0 -74 -35 -145 -138 -167v-2c42 -8 62 -28 76 -68l98 -280h-95l-80 236c-20 58 -45 80 -111 80h-40v-316h-88zM165 626v-238h68c94 0 130 62 130 123c0 78 -51 115 -128 115h-70z" />
    <glyph glyph-name="S" unicode="S" horiz-adv-x="444" 
d="M365 682v-85c-33 20 -76 32 -119 32c-66 0 -109 -45 -109 -104c0 -45 18 -73 118 -131c108 -62 144 -123 144 -203c0 -111 -69 -198 -203 -198c-56 0 -109 12 -146 30v91c40 -24 92 -45 133 -45c79 0 124 53 124 110c0 54 -14 85 -108 142c-126 76 -154 119 -154 209
c0 115 88 175 194 175c46 0 95 -10 126 -23z" />
    <glyph glyph-name="T" unicode="T" horiz-adv-x="444" 
d="M178 0v622h-160v76h408v-76h-160v-622h-88z" />
    <glyph glyph-name="U" unicode="U" horiz-adv-x="592" 
d="M515 698v-441c0 -69 -4 -107 -28 -156c-29 -58 -90 -108 -191 -108s-162 50 -191 108c-24 49 -28 87 -28 156v441h88v-454c0 -109 48 -179 131 -179s131 70 131 179v454h88z" />
    <glyph glyph-name="V" unicode="V" horiz-adv-x="537" 
d="M221 0l-212 698h96l162 -569h2l171 569h88l-219 -698h-88z" />
    <glyph glyph-name="W" unicode="W" horiz-adv-x="796" 
d="M161 0l-152 698h92l114 -566h2l125 566h112l125 -566h2l122 566h84l-152 -698h-104l-132 598h-2l-132 -598h-104z" />
    <glyph glyph-name="X" unicode="X" horiz-adv-x="537" 
d="M6 0l212 369l-187 329h104l146 -257l140 257h97l-195 -330l208 -368h-104l-164 291l-157 -291h-100z" />
    <glyph glyph-name="Y" unicode="Y" horiz-adv-x="518" 
d="M215 0v293l-209 405h100l154 -309l155 309h97l-209 -405v-293h-88z" />
    <glyph glyph-name="Z" unicode="Z" horiz-adv-x="463" 
d="M34 0v83l284 539h-275v76h380v-76l-293 -546h299v-76h-395z" />
    <glyph glyph-name="bracketleft" unicode="[" horiz-adv-x="278" 
d="M90 -140v896h152v-60h-80v-776h80v-60h-152z" />
    <glyph glyph-name="backslash" unicode="\" horiz-adv-x="259" 
d="M185 -7l-185 712h74l185 -712h-74z" />
    <glyph glyph-name="bracketright" unicode="]" horiz-adv-x="278" 
d="M36 -140v60h80v776h-80v60h152v-896h-152z" />
    <glyph glyph-name="asciicircum" unicode="^" horiz-adv-x="600" 
d="M47 265l221 433h64l221 -433h-72l-181 365l-181 -365h-72z" />
    <glyph glyph-name="underscore" unicode="_" horiz-adv-x="500" 
d="M0 -125v50h500v-50h-500z" />
    <glyph glyph-name="quoteleft" unicode="&#x2018;" horiz-adv-x="240" 
d="M49 518l66 232h76l-50 -232h-92z" />
    <glyph glyph-name="a" unicode="a" horiz-adv-x="463" 
d="M90 396l-9 79c42 27 94 42 144 42c75 0 120 -32 136 -48c22 -22 44 -53 44 -125v-266c0 -30 2 -60 4 -78h-76l-5 69h-2c-23 -39 -65 -76 -143 -76c-84 0 -147 49 -147 147c0 99 65 172 240 172h49v23c0 38 -3 60 -19 82c-17 23 -50 32 -85 32c-52 0 -102 -21 -131 -53z
M325 186v64c-15 2 -36 2 -59 2c-99 0 -146 -47 -146 -106c0 -54 28 -89 86 -89c73 0 119 59 119 129z" />
    <glyph glyph-name="b" unicode="b" horiz-adv-x="481" 
d="M137 255c0 -128 35 -194 112 -194s112 66 112 194s-35 194 -112 194s-112 -66 -112 -194zM53 94v656h84v-310h2c34 54 72 77 130 77c105 0 176 -86 176 -262s-71 -262 -176 -262c-74 0 -112 42 -134 82h-2l-3 -75h-81c1 31 4 63 4 94z" />
    <glyph glyph-name="c" unicode="c" horiz-adv-x="389" 
d="M365 497l-4 -76c-29 16 -58 24 -97 24c-82 0 -140 -57 -140 -195c0 -118 56 -185 138 -185c40 0 74 12 103 27l4 -77c-25 -11 -70 -22 -107 -22c-152 0 -226 113 -226 257c0 165 86 267 228 267c35 0 74 -7 101 -20z" />
    <glyph glyph-name="d" unicode="d" horiz-adv-x="481" 
d="M344 255c0 128 -35 194 -112 194s-112 -66 -112 -194s35 -194 112 -194s112 66 112 194zM428 750v-656c0 -31 3 -63 4 -94h-81l-3 75h-2c-22 -40 -60 -82 -134 -82c-105 0 -176 86 -176 262s71 262 176 262c58 0 96 -23 130 -77h2v310h84z" />
    <glyph glyph-name="e" unicode="e" horiz-adv-x="444" 
d="M412 230h-288c0 -118 46 -173 139 -173c42 0 88 21 117 42l4 -76c-40 -19 -92 -30 -143 -30c-135 0 -205 102 -205 262s70 262 197 262c115 0 179 -92 179 -242v-45zM124 294h204c0 106 -33 159 -100 159c-54 0 -102 -40 -104 -159z" />
    <glyph glyph-name="f" unicode="f" horiz-adv-x="278" 
d="M97 0v442h-81v68h81v114c0 83 38 138 127 138c23 0 47 -3 66 -8v-72c-10 8 -28 12 -48 12c-47 0 -61 -26 -61 -77v-107h92v-68h-92v-442h-84z" />
    <glyph glyph-name="g" unicode="g" horiz-adv-x="481" 
d="M120 255c0 -128 35 -194 112 -194s112 66 112 194s-35 194 -112 194s-112 -66 -112 -194zM428 417v-439c0 -141 -106 -200 -218 -200c-43 0 -112 16 -149 31l4 85c36 -24 94 -44 140 -44c103 0 143 61 143 149v80h-2c-33 -58 -78 -86 -134 -86c-105 0 -176 86 -176 262
s71 262 185 262c51 0 97 -32 125 -81h2l3 74h81c-1 -30 -4 -62 -4 -93z" />
    <glyph glyph-name="h" unicode="h" horiz-adv-x="482" 
d="M61 0v750h84v-310h2c22 43 66 77 125 77c89 0 149 -51 149 -163v-354h-84v329c0 81 -30 116 -84 116c-66 0 -108 -46 -108 -138v-307h-84z" />
    <glyph glyph-name="i" unicode="i" horiz-adv-x="222" 
d="M69 0v510h84v-510h-84zM65 720h92v-100h-92v100z" />
    <glyph glyph-name="j" unicode="j" horiz-adv-x="222" 
d="M-12 -213v68c11 -2 24 -5 37 -5c35 0 44 15 44 67v593h84v-604c0 -86 -25 -128 -117 -128c-18 0 -34 3 -48 9zM65 720h92v-100h-92v100z" />
    <glyph glyph-name="k" unicode="k" horiz-adv-x="444" 
d="M145 305l175 205h98l-200 -228l218 -282h-104l-185 257h-2v-257h-84v750h84v-445z" />
    <glyph glyph-name="l" unicode="l" horiz-adv-x="222" 
d="M69 0v750h84v-750h-84z" />
    <glyph glyph-name="m" unicode="m" horiz-adv-x="722" 
d="M61 0v400c0 37 -3 74 -4 110h81l3 -76h2c27 58 70 83 126 83c54 0 94 -28 120 -80c27 50 66 80 124 80c88 0 148 -51 148 -163v-354h-84v350c0 65 -28 95 -78 95c-62 0 -96 -38 -96 -130v-315h-84v350c0 65 -28 95 -78 95c-62 0 -96 -38 -96 -130v-315h-84z" />
    <glyph glyph-name="n" unicode="n" horiz-adv-x="482" 
d="M61 0v400c0 37 -3 74 -4 110h81l3 -76h2c27 58 70 83 129 83c89 0 149 -51 149 -163v-354h-84v329c0 81 -30 116 -84 116c-66 0 -108 -46 -108 -138v-307h-84z" />
    <glyph glyph-name="o" unicode="o" horiz-adv-x="482" 
d="M124 255c0 -128 37 -194 117 -194s117 66 117 194s-37 194 -117 194s-117 -66 -117 -194zM36 255c0 160 70 262 205 262s205 -102 205 -262s-70 -262 -205 -262s-205 102 -205 262z" />
    <glyph glyph-name="p" unicode="p" horiz-adv-x="481" 
d="M137 255c0 -128 35 -194 112 -194s112 66 112 194s-35 194 -112 194s-112 -66 -112 -194zM53 -216v632c0 31 -3 63 -4 94h81l3 -75h2c22 40 60 82 134 82c105 0 176 -86 176 -262s-71 -262 -176 -262c-58 0 -96 23 -130 77h-2v-286h-84z" />
    <glyph glyph-name="q" unicode="q" horiz-adv-x="481" 
d="M344 255c0 128 -35 194 -112 194s-112 -66 -112 -194s35 -194 112 -194s112 66 112 194zM344 -216v286h-2c-34 -54 -72 -77 -130 -77c-105 0 -176 86 -176 262s71 262 176 262c74 0 112 -42 134 -82h2l3 75h81c-1 -31 -4 -63 -4 -94v-632h-84z" />
    <glyph glyph-name="r" unicode="r" horiz-adv-x="296" 
d="M61 0v400c0 37 -3 74 -4 110h81l3 -80h2c27 62 70 87 145 87v-83c-10 2 -21 3 -32 3c-65 0 -111 -56 -111 -167v-270h-84z" />
    <glyph glyph-name="s" unicode="s" horiz-adv-x="370" 
d="M34 23l5 76c38 -23 78 -38 120 -38c64 0 97 33 97 72c0 35 -18 59 -65 80l-56 25c-73 33 -100 66 -100 131c0 84 65 148 164 148c42 0 79 -7 108 -18l-4 -72c-26 12 -62 22 -100 22c-55 0 -84 -30 -84 -70c0 -41 30 -64 86 -86l30 -12c62 -25 101 -67 101 -130
c0 -88 -47 -158 -164 -158c-53 0 -101 11 -138 30z" />
    <glyph glyph-name="t" unicode="t" horiz-adv-x="296" 
d="M286 74v-68c-20 -7 -48 -13 -71 -13c-77 0 -118 31 -118 121v328h-81v68h81v104l84 25v-129h105v-68h-105v-301c0 -58 15 -80 53 -80c21 0 36 6 52 13z" />
    <glyph glyph-name="u" unicode="u" horiz-adv-x="482" 
d="M421 510v-400c0 -37 3 -74 4 -110h-81l-3 76h-2c-27 -58 -70 -83 -129 -83c-89 0 -149 51 -149 163v354h84v-329c0 -81 30 -116 84 -116c66 0 108 46 108 138v307h84z" />
    <glyph glyph-name="v" unicode="v" horiz-adv-x="426" 
d="M164 0l-155 510h92l112 -426h2l114 426h88l-153 -510h-100z" />
    <glyph glyph-name="w" unicode="w" horiz-adv-x="685" 
d="M676 510l-133 -510h-96l-107 431h-2l-98 -431h-96l-135 510h88l97 -426h2l97 426h100l101 -426h2l96 426h84z" />
    <glyph glyph-name="x" unicode="x" horiz-adv-x="426" 
d="M9 0l151 274l-136 236h92l98 -184l98 184h92l-142 -239l155 -271h-96l-113 211l-107 -211h-92z" />
    <glyph glyph-name="y" unicode="y" horiz-adv-x="407" 
d="M398 510l-177 -614c-25 -87 -61 -118 -125 -118c-20 0 -42 2 -57 6l4 76c13 -6 28 -10 46 -10c24 0 42 11 56 64l20 78l-161 518h88l114 -416h2l106 416h84z" />
    <glyph glyph-name="z" unicode="z" horiz-adv-x="389" 
d="M39 510h314v-76l-236 -362h241v-72h-327v76l236 362h-228v72z" />
    <glyph glyph-name="braceleft" unicode="{" horiz-adv-x="278" 
d="M269 756v-46h-38c-39 0 -51 -18 -51 -73v-187c0 -97 -55 -135 -85 -141v-2c30 -6 85 -44 85 -141v-187c0 -55 12 -73 51 -73h38v-46h-59c-57 0 -102 44 -102 121v169c0 84 -24 135 -77 135v46c53 0 77 51 77 135v169c0 77 45 121 102 121h59z" />
    <glyph glyph-name="bar" unicode="|" horiz-adv-x="222" 
d="M73 -250v1000h76v-1000h-76z" />
    <glyph glyph-name="braceright" unicode="}" horiz-adv-x="278" 
d="M9 -140v46h38c39 0 51 18 51 73v187c0 97 55 135 85 141v2c-30 6 -85 44 -85 141v187c0 55 -12 73 -51 73h-38v46h59c57 0 102 -44 102 -121v-169c0 -84 24 -135 77 -135v-46c-53 0 -77 -51 -77 -135v-169c0 -77 -45 -121 -102 -121h-59z" />
    <glyph glyph-name="asciitilde" unicode="~" horiz-adv-x="600" 
d="M495 324l36 -51c-35 -63 -79 -91 -125 -91c-28 0 -53 8 -114 37c-58 28 -80 37 -106 37c-24 0 -48 -18 -81 -74l-36 51c37 65 75 91 125 91c37 0 60 -9 114 -36c57 -28 80 -38 99 -38c23 0 55 22 88 74z" />
    <glyph glyph-name="exclamdown" unicode="&#xa1;" horiz-adv-x="352" 
d="M226 -188h-100l14 512h72zM128 398v112h96v-112h-96z" />
    <glyph glyph-name="cent" unicode="&#xa2;" 
d="M232 80l55 365c-78 -4 -132 -62 -132 -195c0 -86 30 -145 77 -170zM396 497l-4 -76c-19 11 -39 18 -62 21l-56 -375c7 -2 13 -2 19 -2c40 0 74 12 103 27l4 -77c-25 -11 -70 -22 -107 -22c-10 0 -20 0 -30 2l-19 -123h-44l20 132c-103 29 -153 127 -153 246
c0 165 86 267 228 267h3l17 115h44l-18 -119c20 -3 40 -9 55 -16z" />
    <glyph glyph-name="sterling" unicode="&#xa3;" 
d="M52 0v72h70v264h-70v64h70v85c0 158 95 220 204 220c41 0 86 -11 117 -23l-9 -76c-23 15 -69 31 -102 31c-72 0 -126 -44 -126 -145v-92h160v-64h-160v-264h231v-72h-385z" />
    <glyph glyph-name="fraction" unicode="&#x2044;" horiz-adv-x="167" 
d="M-105 -33l313 764h64l-313 -764h-64z" />
    <glyph glyph-name="yen" unicode="&#xa5;" 
d="M199 0v142h-152v64h152v72h-152v64h129l-170 356h92l142 -306l142 306h92l-168 -356h127v-64h-150v-72h150v-64h-150v-142h-84z" />
    <glyph glyph-name="florin" unicode="&#x192;" 
d="M22 -207l10 70c18 -7 39 -13 55 -13c36 0 55 25 83 217l41 281h-88v64h98l13 74c29 163 70 219 153 219c27 0 56 -7 71 -17l-11 -67c-15 10 -35 16 -51 16c-45 0 -61 -43 -79 -170l-8 -55h89v-64h-99l-41 -272c-32 -213 -76 -298 -175 -298c-23 0 -46 9 -61 15z" />
    <glyph glyph-name="section" unicode="&#xa7;" 
d="M63 -94l10 78c39 -29 85 -44 134 -44c65 0 106 34 106 87c0 28 -12 52 -48 74l-117 70c-62 37 -83 80 -83 124c0 45 16 89 90 144c-46 24 -67 64 -67 115c0 79 58 151 170 151c39 0 105 -15 127 -29l-10 -77c-38 22 -76 34 -110 34c-55 0 -93 -30 -93 -77
c0 -25 12 -48 50 -72l90 -57c72 -46 105 -75 105 -142c0 -59 -60 -116 -86 -136c34 -22 66 -52 66 -119c0 -102 -81 -162 -182 -162c-53 0 -110 16 -152 38zM149 310c0 -43 23 -73 135 -131c33 32 45 64 45 98c0 44 -28 78 -127 130c-39 -32 -53 -62 -53 -97z" />
    <glyph glyph-name="currency" unicode="&#xa4;" 
d="M76 349c0 -99 69 -168 164 -168s164 69 164 168s-69 168 -164 168s-164 -69 -164 -168zM45 115l-40 40l52 52c-31 38 -49 88 -49 142c0 53 18 102 49 142l-52 52l40 40l53 -52c39 32 88 50 142 50s104 -18 143 -50l52 52l40 -40l-52 -52c31 -39 49 -88 49 -142
s-18 -103 -50 -142l53 -52l-40 -40l-52 52c-39 -32 -89 -50 -143 -50s-103 18 -142 50z" />
    <glyph glyph-name="quotesingle" unicode="'" horiz-adv-x="240" 
d="M84 518v232h72v-232h-72z" />
    <glyph glyph-name="quotedblleft" unicode="&#x201c;" horiz-adv-x="500" 
d="M254 518l66 232h76l-50 -232h-92zM104 518l66 232h76l-50 -232h-92z" />
    <glyph glyph-name="guillemotleft" unicode="&#xab;" horiz-adv-x="500" 
d="M348 54l-112 206l112 206h72l-100 -206l100 -206h-72zM192 54l-112 206l112 206h72l-100 -206l100 -206h-72z" />
    <glyph glyph-name="guilsinglleft" unicode="&#x2039;" horiz-adv-x="278" 
d="M159 54l-112 206l112 206h72l-100 -206l100 -206h-72z" />
    <glyph glyph-name="guilsinglright" unicode="&#x203a;" horiz-adv-x="278" 
d="M47 54l100 206l-100 206h72l112 -206l-112 -206h-72z" />
    <glyph glyph-name="fi" unicode="&#xfb01;" horiz-adv-x="500" 
d="M347 0v510h84v-510h-84zM343 720h92v-100h-92v100zM97 0v442h-81v68h81v114c0 83 38 138 127 138c23 0 47 -3 66 -8v-72c-10 8 -28 12 -48 12c-47 0 -61 -26 -61 -77v-107h92v-68h-92v-442h-84z" />
    <glyph glyph-name="fl" unicode="&#xfb02;" horiz-adv-x="500" 
d="M347 0v750h84v-750h-84zM97 0v442h-81v68h81v114c0 83 38 138 127 138c23 0 47 -3 66 -8v-72c-10 8 -28 12 -48 12c-47 0 -61 -26 -61 -77v-107h92v-68h-92v-442h-84z" />
    <glyph glyph-name="endash" unicode="&#x2013;" horiz-adv-x="500" 
d="M0 247v68h500v-68h-500z" />
    <glyph glyph-name="dagger" unicode="&#x2020;" 
d="M202 0v449h-138v68h138v181h76v-181h138v-68h-138v-449h-76z" />
    <glyph glyph-name="daggerdbl" unicode="&#x2021;" 
d="M202 0v168h-138v68h138v226h-138v68h138v168h76v-168h138v-68h-138v-226h138v-68h-138v-168h-76z" />
    <glyph glyph-name="periodcentered" unicode="&#xb7;" horiz-adv-x="240" 
d="M56 298c0 35 29 64 64 64s64 -29 64 -64s-29 -64 -64 -64s-64 29 -64 64z" />
    <glyph glyph-name="paragraph" unicode="&#xb6;" horiz-adv-x="555" 
d="M243 -125v445c-121 0 -208 82 -208 186c0 130 88 192 228 192h215v-823h-64v767h-107v-767h-64z" />
    <glyph glyph-name="bullet" unicode="&#x2022;" horiz-adv-x="500" 
d="M75 349c0 97 78 175 175 175s175 -78 175 -175s-78 -175 -175 -175s-175 78 -175 175z" />
    <glyph glyph-name="quotesinglbase" unicode="&#x201a;" horiz-adv-x="240" 
d="M49 -127l50 232h92l-66 -232h-76z" />
    <glyph glyph-name="quotedblbase" unicode="&#x201e;" horiz-adv-x="500" 
d="M104 -127l50 232h92l-66 -232h-76zM254 -127l50 232h92l-66 -232h-76z" />
    <glyph glyph-name="quotedblright" unicode="&#x201d;" horiz-adv-x="500" 
d="M104 518l50 232h92l-66 -232h-76zM254 518l50 232h92l-66 -232h-76z" />
    <glyph glyph-name="guillemotright" unicode="&#xbb;" horiz-adv-x="500" 
d="M80 54l100 206l-100 206h72l112 -206l-112 -206h-72zM236 54l100 206l-100 206h72l112 -206l-112 -206h-72z" />
    <glyph glyph-name="ellipsis" unicode="&#x2026;" horiz-adv-x="1000" 
d="M119 0v112h96v-112h-96zM452 0v112h96v-112h-96zM785 0v112h96v-112h-96z" />
    <glyph glyph-name="perthousand" unicode="&#x2030;" horiz-adv-x="890" 
d="M680 180c0 -101 19 -131 55 -131s55 30 55 131c0 100 -19 131 -55 131s-55 -31 -55 -131zM159 -7l248 712h51l-249 -712h-50zM100 518c0 -101 19 -131 55 -131s55 30 55 131c0 100 -19 131 -55 131s-55 -31 -55 -131zM620 180c0 130 37 187 115 187s115 -57 115 -187
s-37 -187 -115 -187s-115 57 -115 187zM40 518c0 130 37 187 115 187s115 -57 115 -187s-37 -187 -115 -187s-115 57 -115 187zM346 180c0 130 37 187 115 187s115 -57 115 -187s-37 -187 -115 -187s-115 57 -115 187zM406 180c0 -101 19 -131 55 -131s55 30 55 131
c0 100 -19 131 -55 131s-55 -31 -55 -131z" />
    <glyph glyph-name="questiondown" unicode="&#xbf;" horiz-adv-x="444" 
d="M200 329h76c0 -91 -7 -119 -68 -195c-44 -55 -60 -91 -60 -140c0 -67 45 -113 106 -113c35 0 82 18 114 34l4 -82c-38 -17 -88 -28 -129 -28c-111 0 -183 61 -183 172c0 47 17 101 51 152l58 85c26 36 31 51 31 115zM286 510v-112h-96v112h96z" />
    <glyph glyph-name="grave" unicode="`" horiz-adv-x="204" 
d="M88 580l-102 145h99l67 -145h-64z" />
    <glyph glyph-name="acute" unicode="&#xb4;" horiz-adv-x="204" 
d="M52 580l67 145h99l-102 -145h-64z" />
    <glyph glyph-name="circumflex" unicode="&#x2c6;" horiz-adv-x="204" 
d="M-36 580l100 145h76l100 -145h-76l-62 91l-62 -91h-76z" />
    <glyph glyph-name="tilde" unicode="&#x2dc;" horiz-adv-x="204" 
d="M196 710h52c-11 -66 -37 -107 -85 -107c-16 0 -32 3 -69 21c-31 15 -37 17 -47 17c-18 0 -36 -11 -39 -43h-52c7 68 39 107 95 107c18 0 36 -5 76 -25c20 -10 28 -13 35 -13c18 0 28 15 34 43z" />
    <glyph glyph-name="macron" unicode="&#xaf;" horiz-adv-x="204" 
d="M-30 624v60h264v-60h-264z" />
    <glyph glyph-name="breve" unicode="&#x2d8;" horiz-adv-x="204" 
d="M-24 717h52c7 -44 34 -69 74 -69s67 25 74 69h52c-10 -88 -58 -129 -126 -129s-116 41 -126 129z" />
    <glyph glyph-name="dotaccent" unicode="&#x2d9;" horiz-adv-x="204" 
d="M62 615v100h80v-100h-80z" />
    <glyph glyph-name="dieresis" unicode="&#xa8;" horiz-adv-x="204" 
d="M-18 615v100h80v-100h-80zM142 615v100h80v-100h-80z" />
    <glyph glyph-name="ring" unicode="&#x2da;" horiz-adv-x="204" 
d="M-2 668c0 57 47 104 104 104s104 -47 104 -104s-47 -104 -104 -104s-104 47 -104 104zM44 668c0 -32 26 -58 58 -58s58 26 58 58s-26 58 -58 58s-58 -26 -58 -58z" />
    <glyph glyph-name="cedilla" unicode="&#xb8;" horiz-adv-x="204" 
d="M109 0h44l-41 -60c9 2 19 3 29 3c47 0 85 -26 85 -72c0 -48 -41 -87 -119 -87c-35 0 -68 10 -88 18l14 35c20 -7 44 -13 63 -13c35 0 58 20 58 42c0 24 -14 37 -44 37c-17 0 -31 -2 -43 -7l-15 19z" />
    <glyph glyph-name="hungarumlaut" unicode="&#x2dd;" horiz-adv-x="204" 
d="M-28 580l67 145h99l-102 -145h-64zM132 580l67 145h99l-102 -145h-64z" />
    <glyph glyph-name="ogonek" unicode="&#x2db;" horiz-adv-x="204" 
d="M182 -163l14 -35c-28 -12 -52 -18 -75 -18c-62 0 -113 28 -113 88c0 44 42 96 116 128h44c-54 -32 -88 -79 -88 -125c0 -33 19 -51 47 -51c24 0 43 7 55 13z" />
    <glyph glyph-name="caron" unicode="&#x2c7;" horiz-adv-x="204" 
d="M64 580l-100 145h76l62 -91l62 91h76l-100 -145h-76z" />
    <glyph glyph-name="emdash" unicode="&#x2014;" horiz-adv-x="1000" 
d="M0 247v68h1000v-68h-1000z" />
    <glyph glyph-name="AE" unicode="&#xc6;" horiz-adv-x="778" 
d="M8 0l348 698h365v-76h-221v-222h209v-76h-209v-248h230v-76h-318v182h-217l-89 -182h-98zM410 634l-182 -376h184v376h-2z" />
    <glyph glyph-name="ordfeminine" unicode="&#xaa;" horiz-adv-x="296" 
d="M58 628l-6 52c27 16 61 25 98 25c79 0 121 -36 121 -104v-159c0 -18 2 -36 3 -46h-54l-3 43h-2c-13 -28 -45 -47 -92 -47c-60 0 -101 29 -101 87c0 67 43 106 156 106h37v20c0 41 -27 54 -69 54c-37 0 -70 -12 -88 -31zM215 507v36c-9 2 -23 2 -38 2
c-64 0 -95 -18 -95 -58c0 -31 18 -52 56 -52c47 0 77 36 77 72z" />
    <glyph glyph-name="Lslash" unicode="&#x141;" horiz-adv-x="407" 
d="M77 0v278l-67 -64v86l67 64v334h88v-250l127 121v-86l-127 -121v-286h229v-76h-317z" />
    <glyph glyph-name="Oslash" unicode="&#xd8;" horiz-adv-x="612" 
d="M159 197l276 349c-25 53 -66 87 -125 87c-92 0 -170 -76 -170 -291c0 -51 6 -102 19 -145zM453 501l-276 -349c25 -53 66 -87 125 -87c92 0 170 76 170 291c0 51 -6 102 -19 145zM13 12l84 106c-32 58 -49 134 -49 224c0 241 97 363 262 363c74 0 136 -31 181 -88l75 95
l33 -26l-84 -106c32 -58 49 -134 49 -224c0 -241 -97 -363 -262 -363c-75 0 -137 31 -181 88l-75 -95z" />
    <glyph glyph-name="OE" unicode="&#x152;" horiz-adv-x="778" 
d="M721 698v-76h-221v-222h208v-76h-208v-248h230v-76h-281c-23 0 -47 0 -76 -2c-27 -1 -58 -5 -82 -5c-144 0 -243 133 -243 349c0 241 97 363 277 363c15 0 32 -1 55 -3s46 -4 69 -4h272zM412 76v546c-28 8 -63 11 -90 11c-104 0 -182 -76 -182 -291
c0 -182 62 -273 182 -273c31 0 59 1 90 7z" />
    <glyph glyph-name="ordmasculine" unicode="&#xba;" horiz-adv-x="314" 
d="M87 548c0 -73 22 -110 70 -110s70 37 70 110c0 74 -22 111 -70 111s-70 -37 -70 -111zM19 548c0 96 46 157 138 157s138 -61 138 -157c0 -95 -46 -156 -138 -156s-138 61 -138 156z" />
    <glyph glyph-name="ae" unicode="&#xe6;" horiz-adv-x="722" 
d="M402 316h204c0 84 -33 137 -100 137c-54 0 -102 -40 -104 -137zM90 396l-9 79c42 27 94 42 144 42c61 0 117 -23 145 -86c26 51 67 86 141 86c115 0 179 -92 179 -242v-23h-288c0 -140 46 -195 139 -195c42 0 88 21 117 42l4 -76c-40 -19 -92 -30 -143 -30
c-83 0 -142 37 -166 104c-37 -73 -93 -104 -170 -104c-84 0 -147 49 -147 147c0 103 65 176 240 176h50v16c0 78 -43 117 -108 117c-49 0 -99 -21 -128 -53zM326 219v33h-32c-127 0 -174 -42 -174 -112c0 -48 28 -83 86 -83c73 0 120 59 120 162z" />
    <glyph glyph-name="dotlessi" unicode="&#x131;" horiz-adv-x="222" 
d="M69 0v510h84v-510h-84z" />
    <glyph glyph-name="lslash" unicode="&#x142;" horiz-adv-x="222" 
d="M69 0v309h-2l-67 -87v72l69 87v369h84v-262h2l67 84v-72l-69 -86v-414h-84z" />
    <glyph glyph-name="oslash" unicode="&#xf8;" horiz-adv-x="482" 
d="M136 153l194 246c-20 33 -49 50 -89 50c-80 0 -117 -66 -117 -194c0 -40 4 -75 12 -102zM53 -13l-30 23l55 70c-28 43 -42 103 -42 175c0 160 70 262 205 262c59 0 106 -20 139 -55l49 61l30 -23l-56 -69c29 -43 43 -104 43 -176c0 -160 -70 -262 -205 -262
c-60 0 -107 20 -139 56zM346 358l-194 -246c20 -34 49 -51 89 -51c80 0 117 66 117 194c0 40 -4 75 -12 103z" />
    <glyph glyph-name="oe" unicode="&#x153;" horiz-adv-x="778" 
d="M124 255c0 -128 37 -194 122 -194s122 66 122 194s-37 194 -122 194s-122 -66 -122 -194zM448 294h214c0 106 -33 159 -105 159c-61 0 -108 -40 -109 -159zM746 230h-298c1 -112 46 -173 139 -173c52 0 98 21 127 42l4 -76c-40 -19 -92 -30 -143 -30
c-78 0 -135 34 -167 110c-32 -76 -89 -110 -162 -110c-140 0 -210 102 -210 262s70 262 210 262c85 0 129 -34 162 -106c33 72 78 106 156 106c118 0 182 -92 182 -242v-45z" />
    <glyph glyph-name="germandbls" unicode="&#xdf;" horiz-adv-x="481" 
d="M57 0v545c0 127 51 217 184 217c123 0 177 -84 177 -195c0 -83 -24 -127 -116 -165v-2c92 -11 143 -49 143 -196c0 -109 -51 -211 -181 -211c-24 0 -49 3 -67 7l4 73c16 -6 35 -12 65 -12c57 0 95 29 95 129c0 150 -43 164 -151 169v72c91 0 124 31 124 149
c0 72 -27 114 -93 114c-89 0 -100 -78 -100 -156v-538h-84z" />
    <glyph glyph-name="onesuperior" unicode="&#xb9;" horiz-adv-x="288" 
d="M126 282v352l-58 -60l-29 45l93 82h62v-419h-68z" />
    <glyph glyph-name="logicalnot" unicode="&#xac;" horiz-adv-x="600" 
d="M47 320v68h506v-274h-68v206h-438z" />
    <glyph glyph-name="mu" unicode="&#xb5;" horiz-adv-x="482" 
d="M61 -216v726h84v-329c0 -81 30 -116 84 -116c66 0 108 46 108 138v307h84v-400c0 -37 3 -74 4 -110h-81l-3 76h-2c-27 -58 -70 -83 -123 -83c-32 0 -57 12 -69 31h-2v-240h-84z" />
    <glyph glyph-name="trademark" unicode="&#x2122;" horiz-adv-x="1000" 
d="M184 282v370h-130v46h324v-46h-130v-370h-64zM458 282v416h102l122 -320l122 320h102v-416h-64v362h-2l-137 -362h-43l-136 362h-2v-362h-64z" />
    <glyph glyph-name="Eth" unicode="&#xd0;" horiz-adv-x="574" 
d="M67 0v338h-77v64h77v296h152c93 0 146 -22 186 -50c62 -43 129 -131 129 -288c0 -202 -96 -360 -358 -360h-109zM155 622v-220h161v-64h-161v-262h53c154 0 234 105 234 284c0 146 -62 262 -234 262h-53z" />
    <glyph glyph-name="onehalf" unicode="&#xbd;" horiz-adv-x="721" 
d="M172 -33l313 764h64l-313 -764h-64zM126 282v352l-58 -60l-29 45l93 82h62v-419h-68zM453 0v46c115 122 172 205 172 258c0 35 -22 67 -67 67c-26 0 -61 -13 -87 -32l-7 57c39 19 79 27 107 27c78 0 122 -48 122 -106c0 -70 -71 -178 -169 -265h177v-52h-248z" />
    <glyph glyph-name="plusminus" unicode="&#xb1;" horiz-adv-x="600" 
d="M47 270v68h219v168h68v-168h219v-68h-219v-169h-68v169h-219zM47 0v68h506v-68h-506z" />
    <glyph glyph-name="Thorn" unicode="&#xde;" horiz-adv-x="481" 
d="M77 0v698h88v-120h80c70 0 114 -19 151 -54c35 -34 55 -83 55 -144c0 -136 -79 -208 -227 -208h-59v-172h-88zM165 506v-262h48c107 0 146 50 146 128c0 96 -54 134 -144 134h-50z" />
    <glyph glyph-name="onequarter" unicode="&#xbc;" horiz-adv-x="721" 
d="M602 0v90h-178v55l163 274h79v-281h49v-48h-49v-90h-64zM602 138v221h-2l-122 -221h124zM172 -33l313 764h64l-313 -764h-64zM126 282v352l-58 -60l-29 45l93 82h62v-419h-68z" />
    <glyph glyph-name="divide" unicode="&#xf7;" horiz-adv-x="600" 
d="M47 219v68h506v-68h-506zM236 449c0 35 29 64 64 64s64 -29 64 -64s-29 -64 -64 -64s-64 29 -64 64zM236 57c0 35 29 64 64 64s64 -29 64 -64s-29 -64 -64 -64s-64 29 -64 64z" />
    <glyph glyph-name="brokenbar" unicode="&#xa6;" horiz-adv-x="222" 
d="M73 -175v350h76v-350h-76zM73 325v350h76v-350h-76z" />
    <glyph glyph-name="degree" unicode="&#xb0;" horiz-adv-x="400" 
d="M42 547c0 87 71 158 158 158s158 -71 158 -158s-71 -158 -158 -158s-158 71 -158 158zM98 547c0 -56 46 -102 102 -102s102 46 102 102s-46 102 -102 102s-102 -46 -102 -102z" />
    <glyph glyph-name="thorn" unicode="&#xfe;" horiz-adv-x="481" 
d="M137 255c0 -128 35 -194 112 -194s112 66 112 194s-35 194 -112 194s-112 -66 -112 -194zM53 -216v966h84v-311h2c18 36 56 78 130 78c105 0 176 -86 176 -262s-71 -262 -176 -262c-58 0 -96 23 -130 77h-2v-286h-84z" />
    <glyph glyph-name="threequarters" unicode="&#xbe;" horiz-adv-x="721" 
d="M602 0v90h-178v55l163 274h79v-281h49v-48h-49v-90h-64zM602 138v221h-2l-122 -221h124zM172 -33l313 764h64l-313 -764h-64zM20 293l5 57c30 -15 61 -24 87 -24c48 0 92 33 92 82c0 38 -33 66 -88 66h-42v48h23c69 0 104 30 104 68c0 40 -33 67 -78 67
c-24 0 -57 -9 -83 -24l-6 55c30 12 65 17 104 17c71 0 127 -34 127 -104c0 -57 -36 -89 -84 -98v-2c56 -6 87 -50 87 -103c0 -66 -48 -120 -147 -120c-37 0 -76 6 -101 15z" />
    <glyph glyph-name="twosuperior" unicode="&#xb2;" horiz-adv-x="288" 
d="M20 282v46c115 122 172 205 172 258c0 35 -22 67 -67 67c-26 0 -61 -13 -87 -32l-7 57c39 19 79 27 107 27c78 0 122 -48 122 -106c0 -70 -71 -178 -169 -265h177v-52h-248z" />
    <glyph glyph-name="registered" unicode="&#xae;" horiz-adv-x="800" 
d="M264 141v417h160c95 0 143 -38 143 -117c0 -67 -43 -115 -108 -115l119 -185h-72l-115 185h-59v-185h-68zM332 505v-126h81c52 0 86 11 86 65c0 47 -34 61 -86 61h-81zM44 349c0 197 159 356 356 356s356 -159 356 -356s-159 -356 -356 -356s-356 159 -356 356zM112 349
c0 -167 125 -292 288 -292s288 125 288 292s-125 292 -288 292s-288 -125 -288 -292z" />
    <glyph glyph-name="minus" unicode="&#x2212;" horiz-adv-x="600" 
d="M47 219v68h506v-68h-506z" />
    <glyph glyph-name="eth" unicode="&#xf0;" horiz-adv-x="482" 
d="M124 255c0 -128 37 -194 117 -194s117 66 117 194s-37 194 -117 194s-117 -66 -117 -194zM135 611l-33 27l78 47c-25 16 -57 30 -86 39l30 38c41 -8 79 -25 113 -43l71 43l33 -27l-69 -42c108 -77 174 -205 174 -389c0 -209 -64 -311 -205 -311c-135 0 -205 102 -205 262
s70 262 205 262c59 0 86 -26 104 -45l2 2c-26 82 -78 149 -134 184z" />
    <glyph glyph-name="multiply" unicode="&#xd7;" horiz-adv-x="600" 
d="M119 23l-49 50l180 180l-180 180l49 50l181 -180l181 180l49 -50l-180 -180l180 -180l-49 -50l-181 180z" />
    <glyph glyph-name="threesuperior" unicode="&#xb3;" horiz-adv-x="288" 
d="M20 293l5 57c30 -15 61 -24 87 -24c48 0 92 33 92 82c0 38 -33 66 -88 66h-42v48h23c69 0 104 30 104 68c0 40 -33 67 -78 67c-24 0 -57 -9 -83 -24l-6 55c30 12 65 17 104 17c71 0 127 -34 127 -104c0 -57 -36 -89 -84 -98v-2c56 -6 87 -50 87 -103
c0 -66 -48 -120 -147 -120c-37 0 -76 6 -101 15z" />
    <glyph glyph-name="copyright" unicode="&#xa9;" horiz-adv-x="800" 
d="M528 281h60c-19 -95 -88 -154 -175 -154c-129 0 -213 97 -213 222c0 128 79 223 210 223c90 0 164 -51 178 -149h-60c-11 57 -55 96 -117 96c-93 0 -143 -71 -143 -169c0 -92 55 -170 145 -170c62 0 105 41 115 101zM44 349c0 197 159 356 356 356s356 -159 356 -356
s-159 -356 -356 -356s-356 159 -356 356zM112 349c0 -167 125 -292 288 -292s288 125 288 292s-125 292 -288 292s-288 -125 -288 -292z" />
    <glyph glyph-name="Aacute" unicode="&#xc1;" horiz-adv-x="574" 
d="M242 698h96l228 -698h-92l-56 182h-266l-56 -182h-88zM176 258h219l-107 348h-2zM237 732l67 145h99l-102 -145h-64z" />
    <glyph glyph-name="Acircumflex" unicode="&#xc2;" horiz-adv-x="574" 
d="M242 698h96l228 -698h-92l-56 182h-266l-56 -182h-88zM176 258h219l-107 348h-2zM149 732l100 145h76l100 -145h-76l-62 91l-62 -91h-76z" />
    <glyph glyph-name="Adieresis" unicode="&#xc4;" horiz-adv-x="574" 
d="M242 698h96l228 -698h-92l-56 182h-266l-56 -182h-88zM176 258h219l-107 348h-2zM167 767v100h80v-100h-80zM327 767v100h80v-100h-80z" />
    <glyph glyph-name="Agrave" unicode="&#xc0;" horiz-adv-x="574" 
d="M242 698h96l228 -698h-92l-56 182h-266l-56 -182h-88zM176 258h219l-107 348h-2zM273 732l-102 145h99l67 -145h-64z" />
    <glyph glyph-name="Aring" unicode="&#xc5;" horiz-adv-x="574" 
d="M242 698h96l228 -698h-92l-56 182h-266l-56 -182h-88zM176 258h219l-107 348h-2zM183 825c0 57 47 104 104 104s104 -47 104 -104s-47 -104 -104 -104s-104 47 -104 104zM229 825c0 -32 26 -58 58 -58s58 26 58 58s-26 58 -58 58s-58 -26 -58 -58z" />
    <glyph glyph-name="Atilde" unicode="&#xc3;" horiz-adv-x="574" 
d="M242 698h96l228 -698h-92l-56 182h-266l-56 -182h-88zM176 258h219l-107 348h-2zM381 862h52c-11 -66 -37 -107 -85 -107c-16 0 -32 3 -69 21c-31 15 -37 17 -47 17c-18 0 -36 -11 -39 -43h-52c7 68 39 107 95 107c18 0 36 -5 76 -25c20 -10 28 -13 35 -13
c18 0 28 15 34 43z" />
    <glyph glyph-name="Ccedilla" unicode="&#xc7;" horiz-adv-x="537" 
d="M489 102v-88c-42 -13 -86 -21 -127 -21c-9 0 -18 0 -26 1l-37 -54c9 2 19 3 29 3c47 0 85 -26 85 -72c0 -48 -41 -87 -119 -87c-35 0 -68 10 -88 18l14 35c20 -7 44 -13 63 -13c35 0 58 20 58 42c0 24 -14 37 -44 37c-17 0 -31 -2 -43 -7l-15 19l56 84
c-173 32 -247 183 -247 351c0 218 127 355 309 355c50 0 100 -9 132 -25v-86c-38 24 -82 35 -131 35c-114 0 -218 -91 -218 -261c0 -180 72 -299 224 -299c45 0 89 12 125 33z" />
    <glyph glyph-name="Eacute" unicode="&#xc9;" horiz-adv-x="463" 
d="M77 0v698h325v-76h-237v-222h226v-76h-226v-248h250v-76h-338zM182 732l67 145h99l-102 -145h-64z" />
    <glyph glyph-name="Ecircumflex" unicode="&#xca;" horiz-adv-x="463" 
d="M77 0v698h325v-76h-237v-222h226v-76h-226v-248h250v-76h-338zM94 732l100 145h76l100 -145h-76l-62 91l-62 -91h-76z" />
    <glyph glyph-name="Edieresis" unicode="&#xcb;" horiz-adv-x="463" 
d="M77 0v698h325v-76h-237v-222h226v-76h-226v-248h250v-76h-338zM112 767v100h80v-100h-80zM272 767v100h80v-100h-80z" />
    <glyph glyph-name="Egrave" unicode="&#xc8;" horiz-adv-x="463" 
d="M77 0v698h325v-76h-237v-222h226v-76h-226v-248h250v-76h-338zM218 732l-102 145h99l67 -145h-64z" />
    <glyph glyph-name="Iacute" unicode="&#xcd;" horiz-adv-x="242" 
d="M77 0v698h88v-698h-88zM71 732l67 145h99l-102 -145h-64z" />
    <glyph glyph-name="Icircumflex" unicode="&#xce;" horiz-adv-x="242" 
d="M77 0v698h88v-698h-88zM-17 732l100 145h76l100 -145h-76l-62 91l-62 -91h-76z" />
    <glyph glyph-name="Idieresis" unicode="&#xcf;" horiz-adv-x="242" 
d="M77 0v698h88v-698h-88zM1 767v100h80v-100h-80zM161 767v100h80v-100h-80z" />
    <glyph glyph-name="Igrave" unicode="&#xcc;" horiz-adv-x="242" 
d="M77 0v698h88v-698h-88zM107 732l-102 145h99l67 -145h-64z" />
    <glyph glyph-name="Ntilde" unicode="&#xd1;" horiz-adv-x="612" 
d="M77 0v698h109l263 -576h2v576h84v-698h-109l-263 572h-2v-572h-84zM400 862h52c-11 -66 -37 -107 -85 -107c-16 0 -32 3 -69 21c-31 15 -37 17 -47 17c-18 0 -36 -11 -39 -43h-52c7 68 39 107 95 107c18 0 36 -5 76 -25c20 -10 28 -13 35 -13c18 0 28 15 34 43z" />
    <glyph glyph-name="Oacute" unicode="&#xd3;" horiz-adv-x="612" 
d="M48 342c0 241 97 363 262 363c155 0 254 -133 254 -349c0 -241 -97 -363 -262 -363c-155 0 -254 133 -254 349zM140 342c0 -141 44 -277 162 -277c92 0 170 76 170 291c0 141 -44 277 -162 277c-92 0 -170 -76 -170 -291zM256 732l67 145h99l-102 -145h-64z" />
    <glyph glyph-name="Ocircumflex" unicode="&#xd4;" horiz-adv-x="612" 
d="M48 342c0 241 97 363 262 363c155 0 254 -133 254 -349c0 -241 -97 -363 -262 -363c-155 0 -254 133 -254 349zM140 342c0 -141 44 -277 162 -277c92 0 170 76 170 291c0 141 -44 277 -162 277c-92 0 -170 -76 -170 -291zM168 732l100 145h76l100 -145h-76l-62 91
l-62 -91h-76z" />
    <glyph glyph-name="Odieresis" unicode="&#xd6;" horiz-adv-x="612" 
d="M48 342c0 241 97 363 262 363c155 0 254 -133 254 -349c0 -241 -97 -363 -262 -363c-155 0 -254 133 -254 349zM140 342c0 -141 44 -277 162 -277c92 0 170 76 170 291c0 141 -44 277 -162 277c-92 0 -170 -76 -170 -291zM186 767v100h80v-100h-80zM346 767v100h80v-100
h-80z" />
    <glyph glyph-name="Ograve" unicode="&#xd2;" horiz-adv-x="612" 
d="M48 342c0 241 97 363 262 363c155 0 254 -133 254 -349c0 -241 -97 -363 -262 -363c-155 0 -254 133 -254 349zM140 342c0 -141 44 -277 162 -277c92 0 170 76 170 291c0 141 -44 277 -162 277c-92 0 -170 -76 -170 -291zM292 732l-102 145h99l67 -145h-64z" />
    <glyph glyph-name="Otilde" unicode="&#xd5;" horiz-adv-x="612" 
d="M48 342c0 241 97 363 262 363c155 0 254 -133 254 -349c0 -241 -97 -363 -262 -363c-155 0 -254 133 -254 349zM140 342c0 -141 44 -277 162 -277c92 0 170 76 170 291c0 141 -44 277 -162 277c-92 0 -170 -76 -170 -291zM400 862h52c-11 -66 -37 -107 -85 -107
c-16 0 -32 3 -69 21c-31 15 -37 17 -47 17c-18 0 -36 -11 -39 -43h-52c7 68 39 107 95 107c18 0 36 -5 76 -25c20 -10 28 -13 35 -13c18 0 28 15 34 43z" />
    <glyph glyph-name="Scaron" unicode="&#x160;" horiz-adv-x="444" 
d="M365 682v-85c-33 20 -76 32 -119 32c-66 0 -109 -45 -109 -104c0 -45 18 -73 118 -131c108 -62 144 -123 144 -203c0 -111 -69 -198 -203 -198c-56 0 -109 12 -146 30v91c40 -24 92 -45 133 -45c79 0 124 53 124 110c0 54 -14 85 -108 142c-126 76 -154 119 -154 209
c0 115 88 175 194 175c46 0 95 -10 126 -23zM184 732l-100 145h76l62 -91l62 91h76l-100 -145h-76z" />
    <glyph glyph-name="Uacute" unicode="&#xda;" horiz-adv-x="592" 
d="M515 698v-441c0 -69 -4 -107 -28 -156c-29 -58 -90 -108 -191 -108s-162 50 -191 108c-24 49 -28 87 -28 156v441h88v-454c0 -109 48 -179 131 -179s131 70 131 179v454h88zM246 732l67 145h99l-102 -145h-64z" />
    <glyph glyph-name="Ucircumflex" unicode="&#xdb;" horiz-adv-x="592" 
d="M515 698v-441c0 -69 -4 -107 -28 -156c-29 -58 -90 -108 -191 -108s-162 50 -191 108c-24 49 -28 87 -28 156v441h88v-454c0 -109 48 -179 131 -179s131 70 131 179v454h88zM158 732l100 145h76l100 -145h-76l-62 91l-62 -91h-76z" />
    <glyph glyph-name="Udieresis" unicode="&#xdc;" horiz-adv-x="592" 
d="M515 698v-441c0 -69 -4 -107 -28 -156c-29 -58 -90 -108 -191 -108s-162 50 -191 108c-24 49 -28 87 -28 156v441h88v-454c0 -109 48 -179 131 -179s131 70 131 179v454h88zM176 767v100h80v-100h-80zM336 767v100h80v-100h-80z" />
    <glyph glyph-name="Ugrave" unicode="&#xd9;" horiz-adv-x="592" 
d="M515 698v-441c0 -69 -4 -107 -28 -156c-29 -58 -90 -108 -191 -108s-162 50 -191 108c-24 49 -28 87 -28 156v441h88v-454c0 -109 48 -179 131 -179s131 70 131 179v454h88zM282 732l-102 145h99l67 -145h-64z" />
    <glyph glyph-name="Yacute" unicode="&#xdd;" horiz-adv-x="518" 
d="M215 0v293l-209 405h100l154 -309l155 309h97l-209 -405v-293h-88zM209 732l67 145h99l-102 -145h-64z" />
    <glyph glyph-name="Ydieresis" unicode="&#x178;" horiz-adv-x="518" 
d="M215 0v293l-209 405h100l154 -309l155 309h97l-209 -405v-293h-88zM139 767v100h80v-100h-80zM299 767v100h80v-100h-80z" />
    <glyph glyph-name="Zcaron" unicode="&#x17d;" horiz-adv-x="463" 
d="M34 0v83l284 539h-275v76h380v-76l-293 -546h299v-76h-395zM194 732l-100 145h76l62 -91l62 91h76l-100 -145h-76z" />
    <glyph glyph-name="aacute" unicode="&#xe1;" horiz-adv-x="463" 
d="M90 396l-9 79c42 27 94 42 144 42c75 0 120 -32 136 -48c22 -22 44 -53 44 -125v-266c0 -30 2 -60 4 -78h-76l-5 69h-2c-23 -39 -65 -76 -143 -76c-84 0 -147 49 -147 147c0 99 65 172 240 172h49v23c0 38 -3 60 -19 82c-17 23 -50 32 -85 32c-52 0 -102 -21 -131 -53z
M325 186v64c-15 2 -36 2 -59 2c-99 0 -146 -47 -146 -106c0 -54 28 -89 86 -89c73 0 119 59 119 129zM182 580l67 145h99l-102 -145h-64z" />
    <glyph glyph-name="acircumflex" unicode="&#xe2;" horiz-adv-x="463" 
d="M90 396l-9 79c42 27 94 42 144 42c75 0 120 -32 136 -48c22 -22 44 -53 44 -125v-266c0 -30 2 -60 4 -78h-76l-5 69h-2c-23 -39 -65 -76 -143 -76c-84 0 -147 49 -147 147c0 99 65 172 240 172h49v23c0 38 -3 60 -19 82c-17 23 -50 32 -85 32c-52 0 -102 -21 -131 -53z
M325 186v64c-15 2 -36 2 -59 2c-99 0 -146 -47 -146 -106c0 -54 28 -89 86 -89c73 0 119 59 119 129zM94 580l100 145h76l100 -145h-76l-62 91l-62 -91h-76z" />
    <glyph glyph-name="adieresis" unicode="&#xe4;" horiz-adv-x="463" 
d="M90 396l-9 79c42 27 94 42 144 42c75 0 120 -32 136 -48c22 -22 44 -53 44 -125v-266c0 -30 2 -60 4 -78h-76l-5 69h-2c-23 -39 -65 -76 -143 -76c-84 0 -147 49 -147 147c0 99 65 172 240 172h49v23c0 38 -3 60 -19 82c-17 23 -50 32 -85 32c-52 0 -102 -21 -131 -53z
M325 186v64c-15 2 -36 2 -59 2c-99 0 -146 -47 -146 -106c0 -54 28 -89 86 -89c73 0 119 59 119 129zM112 615v100h80v-100h-80zM272 615v100h80v-100h-80z" />
    <glyph glyph-name="agrave" unicode="&#xe0;" horiz-adv-x="463" 
d="M90 396l-9 79c42 27 94 42 144 42c75 0 120 -32 136 -48c22 -22 44 -53 44 -125v-266c0 -30 2 -60 4 -78h-76l-5 69h-2c-23 -39 -65 -76 -143 -76c-84 0 -147 49 -147 147c0 99 65 172 240 172h49v23c0 38 -3 60 -19 82c-17 23 -50 32 -85 32c-52 0 -102 -21 -131 -53z
M325 186v64c-15 2 -36 2 -59 2c-99 0 -146 -47 -146 -106c0 -54 28 -89 86 -89c73 0 119 59 119 129zM218 580l-102 145h99l67 -145h-64z" />
    <glyph glyph-name="aring" unicode="&#xe5;" horiz-adv-x="463" 
d="M90 396l-9 79c42 27 94 42 144 42c75 0 120 -32 136 -48c22 -22 44 -53 44 -125v-266c0 -30 2 -60 4 -78h-76l-5 69h-2c-23 -39 -65 -76 -143 -76c-84 0 -147 49 -147 147c0 99 65 172 240 172h49v23c0 38 -3 60 -19 82c-17 23 -50 32 -85 32c-52 0 -102 -21 -131 -53z
M325 186v64c-15 2 -36 2 -59 2c-99 0 -146 -47 -146 -106c0 -54 28 -89 86 -89c73 0 119 59 119 129zM140 668c0 57 47 104 104 104s104 -47 104 -104s-47 -104 -104 -104s-104 47 -104 104zM186 668c0 -32 26 -58 58 -58s58 26 58 58s-26 58 -58 58s-58 -26 -58 -58z" />
    <glyph glyph-name="atilde" unicode="&#xe3;" horiz-adv-x="463" 
d="M90 396l-9 79c42 27 94 42 144 42c75 0 120 -32 136 -48c22 -22 44 -53 44 -125v-266c0 -30 2 -60 4 -78h-76l-5 69h-2c-23 -39 -65 -76 -143 -76c-84 0 -147 49 -147 147c0 99 65 172 240 172h49v23c0 38 -3 60 -19 82c-17 23 -50 32 -85 32c-52 0 -102 -21 -131 -53z
M325 186v64c-15 2 -36 2 -59 2c-99 0 -146 -47 -146 -106c0 -54 28 -89 86 -89c73 0 119 59 119 129zM326 710h52c-11 -66 -37 -107 -85 -107c-16 0 -32 3 -69 21c-31 15 -37 17 -47 17c-18 0 -36 -11 -39 -43h-52c7 68 39 107 95 107c18 0 36 -5 76 -25
c20 -10 28 -13 35 -13c18 0 28 15 34 43z" />
    <glyph glyph-name="ccedilla" unicode="&#xe7;" horiz-adv-x="389" 
d="M135 -198l14 35c20 -7 44 -13 63 -13c35 0 58 20 58 42c0 24 -14 37 -44 37c-17 0 -31 -2 -43 -7l-15 19l55 82c-126 17 -187 122 -187 253c0 165 86 267 224 267c39 0 78 -7 105 -20l-4 -76c-29 16 -58 24 -97 24c-82 0 -140 -57 -140 -195c0 -118 56 -185 138 -185
c40 0 74 12 103 27l4 -77c-25 -11 -68 -22 -105 -22l-36 -53c9 2 19 3 29 3c47 0 85 -26 85 -72c0 -48 -41 -87 -119 -87c-35 0 -68 10 -88 18z" />
    <glyph glyph-name="eacute" unicode="&#xe9;" horiz-adv-x="444" 
d="M412 230h-288c0 -118 46 -173 139 -173c42 0 88 21 117 42l4 -76c-40 -19 -92 -30 -143 -30c-135 0 -205 102 -205 262s70 262 197 262c115 0 179 -92 179 -242v-45zM124 294h204c0 106 -33 159 -100 159c-54 0 -102 -40 -104 -159zM172 580l67 145h99l-102 -145h-64z
" />
    <glyph glyph-name="ecircumflex" unicode="&#xea;" horiz-adv-x="444" 
d="M412 230h-288c0 -118 46 -173 139 -173c42 0 88 21 117 42l4 -76c-40 -19 -92 -30 -143 -30c-135 0 -205 102 -205 262s70 262 197 262c115 0 179 -92 179 -242v-45zM124 294h204c0 106 -33 159 -100 159c-54 0 -102 -40 -104 -159zM84 580l100 145h76l100 -145h-76
l-62 91l-62 -91h-76z" />
    <glyph glyph-name="edieresis" unicode="&#xeb;" horiz-adv-x="444" 
d="M412 230h-288c0 -118 46 -173 139 -173c42 0 88 21 117 42l4 -76c-40 -19 -92 -30 -143 -30c-135 0 -205 102 -205 262s70 262 197 262c115 0 179 -92 179 -242v-45zM124 294h204c0 106 -33 159 -100 159c-54 0 -102 -40 -104 -159zM102 615v100h80v-100h-80zM262 615
v100h80v-100h-80z" />
    <glyph glyph-name="egrave" unicode="&#xe8;" horiz-adv-x="444" 
d="M412 230h-288c0 -118 46 -173 139 -173c42 0 88 21 117 42l4 -76c-40 -19 -92 -30 -143 -30c-135 0 -205 102 -205 262s70 262 197 262c115 0 179 -92 179 -242v-45zM124 294h204c0 106 -33 159 -100 159c-54 0 -102 -40 -104 -159zM208 580l-102 145h99l67 -145h-64z
" />
    <glyph glyph-name="iacute" unicode="&#xed;" horiz-adv-x="222" 
d="M69 0v510h84v-510h-84zM61 580l67 145h99l-102 -145h-64z" />
    <glyph glyph-name="icircumflex" unicode="&#xee;" horiz-adv-x="222" 
d="M69 0v510h84v-510h-84zM-27 580l100 145h76l100 -145h-76l-62 91l-62 -91h-76z" />
    <glyph glyph-name="idieresis" unicode="&#xef;" horiz-adv-x="222" 
d="M69 0v510h84v-510h-84zM-9 615v100h80v-100h-80zM151 615v100h80v-100h-80z" />
    <glyph glyph-name="igrave" unicode="&#xec;" horiz-adv-x="222" 
d="M69 0v510h84v-510h-84zM97 580l-102 145h99l67 -145h-64z" />
    <glyph glyph-name="ntilde" unicode="&#xf1;" horiz-adv-x="482" 
d="M61 0v400c0 37 -3 74 -4 110h81l3 -76h2c27 58 70 83 129 83c89 0 149 -51 149 -163v-354h-84v329c0 81 -30 116 -84 116c-66 0 -108 -46 -108 -138v-307h-84zM335 710h52c-11 -66 -37 -107 -85 -107c-16 0 -32 3 -69 21c-31 15 -37 17 -47 17c-18 0 -36 -11 -39 -43h-52
c7 68 39 107 95 107c18 0 36 -5 76 -25c20 -10 28 -13 35 -13c18 0 28 15 34 43z" />
    <glyph glyph-name="oacute" unicode="&#xf3;" horiz-adv-x="482" 
d="M124 255c0 -128 37 -194 117 -194s117 66 117 194s-37 194 -117 194s-117 -66 -117 -194zM36 255c0 160 70 262 205 262s205 -102 205 -262s-70 -262 -205 -262s-205 102 -205 262zM191 580l67 145h99l-102 -145h-64z" />
    <glyph glyph-name="ocircumflex" unicode="&#xf4;" horiz-adv-x="482" 
d="M124 255c0 -128 37 -194 117 -194s117 66 117 194s-37 194 -117 194s-117 -66 -117 -194zM36 255c0 160 70 262 205 262s205 -102 205 -262s-70 -262 -205 -262s-205 102 -205 262zM103 580l100 145h76l100 -145h-76l-62 91l-62 -91h-76z" />
    <glyph glyph-name="odieresis" unicode="&#xf6;" horiz-adv-x="482" 
d="M124 255c0 -128 37 -194 117 -194s117 66 117 194s-37 194 -117 194s-117 -66 -117 -194zM36 255c0 160 70 262 205 262s205 -102 205 -262s-70 -262 -205 -262s-205 102 -205 262zM121 615v100h80v-100h-80zM281 615v100h80v-100h-80z" />
    <glyph glyph-name="ograve" unicode="&#xf2;" horiz-adv-x="482" 
d="M124 255c0 -128 37 -194 117 -194s117 66 117 194s-37 194 -117 194s-117 -66 -117 -194zM36 255c0 160 70 262 205 262s205 -102 205 -262s-70 -262 -205 -262s-205 102 -205 262zM227 580l-102 145h99l67 -145h-64z" />
    <glyph glyph-name="otilde" unicode="&#xf5;" horiz-adv-x="482" 
d="M124 255c0 -128 37 -194 117 -194s117 66 117 194s-37 194 -117 194s-117 -66 -117 -194zM36 255c0 160 70 262 205 262s205 -102 205 -262s-70 -262 -205 -262s-205 102 -205 262zM335 710h52c-11 -66 -37 -107 -85 -107c-16 0 -32 3 -69 21c-31 15 -37 17 -47 17
c-18 0 -36 -11 -39 -43h-52c7 68 39 107 95 107c18 0 36 -5 76 -25c20 -10 28 -13 35 -13c18 0 28 15 34 43z" />
    <glyph glyph-name="scaron" unicode="&#x161;" horiz-adv-x="370" 
d="M34 23l5 76c38 -23 78 -38 120 -38c64 0 97 33 97 72c0 35 -18 59 -65 80l-56 25c-73 33 -100 66 -100 131c0 84 65 148 164 148c42 0 79 -7 108 -18l-4 -72c-26 12 -62 22 -100 22c-55 0 -84 -30 -84 -70c0 -41 30 -64 86 -86l30 -12c62 -25 101 -67 101 -130
c0 -88 -47 -158 -164 -158c-53 0 -101 11 -138 30zM147 580l-100 145h76l62 -91l62 91h76l-100 -145h-76z" />
    <glyph glyph-name="uacute" unicode="&#xfa;" horiz-adv-x="482" 
d="M421 510v-400c0 -37 3 -74 4 -110h-81l-3 76h-2c-27 -58 -70 -83 -129 -83c-89 0 -149 51 -149 163v354h84v-329c0 -81 30 -116 84 -116c66 0 108 46 108 138v307h84zM191 580l67 145h99l-102 -145h-64z" />
    <glyph glyph-name="ucircumflex" unicode="&#xfb;" horiz-adv-x="482" 
d="M421 510v-400c0 -37 3 -74 4 -110h-81l-3 76h-2c-27 -58 -70 -83 -129 -83c-89 0 -149 51 -149 163v354h84v-329c0 -81 30 -116 84 -116c66 0 108 46 108 138v307h84zM103 580l100 145h76l100 -145h-76l-62 91l-62 -91h-76z" />
    <glyph glyph-name="udieresis" unicode="&#xfc;" horiz-adv-x="482" 
d="M421 510v-400c0 -37 3 -74 4 -110h-81l-3 76h-2c-27 -58 -70 -83 -129 -83c-89 0 -149 51 -149 163v354h84v-329c0 -81 30 -116 84 -116c66 0 108 46 108 138v307h84zM121 615v100h80v-100h-80zM281 615v100h80v-100h-80z" />
    <glyph glyph-name="ugrave" unicode="&#xf9;" horiz-adv-x="482" 
d="M421 510v-400c0 -37 3 -74 4 -110h-81l-3 76h-2c-27 -58 -70 -83 -129 -83c-89 0 -149 51 -149 163v354h84v-329c0 -81 30 -116 84 -116c66 0 108 46 108 138v307h84zM227 580l-102 145h99l67 -145h-64z" />
    <glyph glyph-name="yacute" unicode="&#xfd;" horiz-adv-x="407" 
d="M398 510l-177 -614c-25 -87 -61 -118 -125 -118c-20 0 -42 2 -57 6l4 76c13 -6 28 -10 46 -10c24 0 42 11 56 64l20 78l-161 518h88l114 -416h2l106 416h84zM154 580l67 145h99l-102 -145h-64z" />
    <glyph glyph-name="ydieresis" unicode="&#xff;" horiz-adv-x="407" 
d="M398 510l-177 -614c-25 -87 -61 -118 -125 -118c-20 0 -42 2 -57 6l4 76c13 -6 28 -10 46 -10c24 0 42 11 56 64l20 78l-161 518h88l114 -416h2l106 416h84zM84 615v100h80v-100h-80zM244 615v100h80v-100h-80z" />
    <glyph glyph-name="zcaron" unicode="&#x17e;" horiz-adv-x="389" 
d="M39 510h314v-76l-236 -362h241v-72h-327v76l236 362h-228v72zM157 580l-100 145h76l62 -91l62 91h76l-100 -145h-76z" />
    <glyph glyph-name="Omega" unicode="&#x2126;" horiz-adv-x="614" 
d="M166 66v3c-60 65 -114 170 -114 304c0 191 110 324 258 324c157 0 250 -152 250 -318c0 -139 -57 -251 -115 -310v-3h127v-66h-210v49c62 49 120 159 120 312c0 127 -57 267 -174 267c-109 0 -178 -116 -178 -269c0 -143 60 -263 121 -310v-49h-211v66h126z" />
    <glyph glyph-name="uni03BC" unicode="&#x3bc;" horiz-adv-x="482" 
d="M61 -216v726h84v-329c0 -81 30 -116 84 -116c66 0 108 46 108 138v307h84v-400c0 -37 3 -74 4 -110h-81l-3 76h-2c-27 -58 -70 -83 -123 -83c-32 0 -57 12 -69 31h-2v-240h-84z" />
    <glyph glyph-name="pi" unicode="&#x3c0;" horiz-adv-x="503" 
d="M480 442h-67v-303c0 -76 5 -113 12 -139h-74c-9 17 -15 59 -15 134v308h-147c-5 -122 -30 -342 -63 -442h-75c33 110 58 315 61 442c-51 0 -75 -4 -92 -10l-11 53c21 15 61 27 129 27h349z" />
    <glyph glyph-name="Euro" unicode="&#x20ac;" 
d="M486 679l-16 -80c-18 18 -77 30 -102 30c-111 0 -169 -87 -190 -187h265l-10 -49h-263c-3 -29 -3 -59 0 -88h249l-9 -49h-232c22 -97 80 -185 190 -185c36 0 70 8 102 25l6 -85c-39 -12 -73 -18 -113 -18c-162 0 -252 116 -278 263h-78l10 49h63c-2 29 -3 59 0 88h-73
l10 49h69c26 145 117 263 277 263c44 0 83 -7 123 -26z" />
    <glyph glyph-name="afii61289" unicode="&#x2113;" horiz-adv-x="430" 
d="M376 148l35 -32c-39 -80 -96 -119 -165 -119c-107 0 -146 83 -149 182v13c-16 -13 -33 -29 -50 -43l-22 45c26 23 50 44 71 67v266c0 174 70 234 141 234c74 0 110 -68 110 -159c0 -120 -70 -238 -177 -352v-40c1 -108 41 -150 92 -150c52 0 92 47 114 88zM170 527v-198
c72 88 127 183 127 275c0 60 -16 96 -59 96c-32 0 -68 -42 -68 -173z" />
    <glyph glyph-name="estimated" unicode="&#x212e;" horiz-adv-x="858" 
d="M824 339h-640c-3 0 -5 -1 -5 -4v-194c0 -8 3 -16 8 -22c62 -64 147 -105 242 -105c102 0 193 46 255 118h57c-71 -84 -185 -138 -313 -138c-218 0 -395 159 -395 355s177 356 395 356c219 0 396 -160 396 -356v-10zM679 364v195c0 9 -3 17 -10 23
c-62 61 -146 101 -240 101s-179 -41 -241 -104c-6 -6 -9 -15 -9 -24v-191c0 -2 2 -6 5 -6h491c3 0 4 4 4 6z" />
    <glyph glyph-name="partialdiff" unicode="&#x2202;" horiz-adv-x="484" 
d="M91 663l-25 61c29 24 76 53 148 53c115 0 226 -112 226 -370c0 -247 -82 -409 -232 -409c-113 0 -170 108 -170 225c0 157 90 255 189 255c75 0 121 -53 136 -81h1c1 10 1 28 1 38c0 158 -70 274 -160 274c-52 0 -89 -24 -114 -46zM215 65h1c79 0 129 121 140 252
c-12 41 -54 95 -117 95c-69 0 -124 -88 -124 -190c0 -93 38 -157 100 -157z" />
    <glyph glyph-name="product" unicode="&#x220f;" horiz-adv-x="616" 
d="M591 613h-92v-708h-76v708h-231v-708h-76v708h-92v73h567v-73z" />
    <glyph glyph-name="summation" unicode="&#x2211;" horiz-adv-x="484" 
d="M465 -95h-443v55l230 336l-221 334v56h420v-68h-316v-3l204 -306l-223 -324v-4h349v-76z" />
    <glyph glyph-name="uni2219" unicode="&#x2219;" horiz-adv-x="240" 
d="M56 298c0 35 29 64 64 64s64 -29 64 -64s-29 -64 -64 -64s-64 29 -64 64z" />
    <glyph glyph-name="radical" unicode="&#x221a;" horiz-adv-x="512" 
d="M510 819l-195 -963h-66l-138 451l-66 -25l-14 49l129 50l105 -345c6 -28 13 -59 16 -78h1c3 18 7 49 12 78l160 783h56z" />
    <glyph glyph-name="infinity" unicode="&#x221e;" horiz-adv-x="708" 
d="M662 286v-1c0 -92 -68 -149 -141 -149c-56 0 -103 32 -166 107c-48 -56 -97 -107 -172 -107c-74 0 -138 62 -138 145c0 86 61 148 145 148c69 0 120 -49 168 -107c45 50 91 107 170 107s134 -58 134 -143zM190 184h1c57 0 100 54 137 95c-40 51 -79 103 -143 103
c-57 0 -90 -47 -89 -102c0 -53 38 -96 94 -96zM522 382h-1c-59 0 -107 -65 -138 -98c59 -68 92 -100 141 -100c56 0 88 51 88 97c0 63 -37 101 -90 101z" />
    <glyph glyph-name="integral" unicode="&#x222b;" horiz-adv-x="335" 
d="M314 829l-11 -57c-8 5 -20 9 -32 9c-15 0 -33 -7 -44 -24c-22 -28 -29 -81 -29 -174c0 -155 12 -327 12 -491c0 -103 -17 -163 -38 -199c-21 -37 -58 -53 -96 -53c-24 0 -48 8 -59 15l13 59c8 -4 21 -10 38 -10c15 0 31 7 41 22c17 24 28 69 28 166
c0 165 -12 341 -12 499c0 109 14 169 49 210c23 26 57 40 91 40c19 0 40 -7 49 -12z" />
    <glyph glyph-name="approxequal" unicode="&#x2248;" horiz-adv-x="495" 
d="M424 418l31 -26c-23 -51 -61 -91 -116 -91c-35 0 -60 13 -102 38c-28 17 -52 31 -81 31c-41 0 -64 -32 -85 -68l-33 25c27 55 71 91 124 91c44 0 75 -24 99 -37c30 -17 51 -32 81 -32c36 0 58 26 82 69zM424 260l31 -27c-23 -50 -61 -90 -116 -90c-35 0 -60 13 -102 37
c-28 18 -52 32 -81 32c-41 0 -64 -33 -85 -69l-33 26c27 55 71 91 124 91c44 0 75 -23 98 -36c30 -17 52 -33 82 -33c36 0 58 26 82 69z" />
    <glyph glyph-name="notequal" unicode="&#x2260;" horiz-adv-x="495" 
d="M354 481l-38 -87h133v-50h-152l-58 -131h210v-50h-229l-46 -104l-39 17l39 87h-129v50h148l58 131h-206v50h224l46 103z" />
    <glyph glyph-name="lessequal" unicode="&#x2264;" horiz-adv-x="495" 
d="M447 101l-397 209v53l396 209v-60l-345 -173v-3l346 -174v-61zM450 12h-404v52h404v-52z" />
    <glyph glyph-name="greaterequal" unicode="&#x2265;" horiz-adv-x="495" 
d="M51 572l397 -209v-53l-397 -209v61l345 174v2l-345 174v60zM449 12h-403v52h403v-52z" />
    <glyph glyph-name="lozenge" unicode="&#x25ca;" horiz-adv-x="512" 
d="M464 343l-178 -384h-64l-174 384l178 384h64zM393 341l-119 260c-6 18 -13 41 -16 56h-3c-4 -16 -9 -36 -17 -56l-119 -256l119 -263c8 -21 13 -42 16 -54h3c3 13 11 40 16 52z" />
    <glyph glyph-name="uni00A0" unicode="&#xa0;" horiz-adv-x="240" 
 />
    <glyph glyph-name="uni00AD" unicode="&#xad;" horiz-adv-x="296" 
d="M40 245v72h216v-72h-216z" />
    <glyph glyph-name="uni02C9" unicode="&#x2c9;" horiz-adv-x="204" 
d="M-30 624v60h264v-60h-264z" />
    <glyph glyph-name="uni03A9" unicode="&#x3a9;" horiz-adv-x="614" 
d="M166 66v3c-60 65 -114 170 -114 304c0 191 110 324 258 324c157 0 250 -152 250 -318c0 -139 -57 -251 -115 -310v-3h127v-66h-210v49c62 49 120 159 120 312c0 127 -57 267 -174 267c-109 0 -178 -116 -178 -269c0 -143 60 -263 121 -310v-49h-211v66h126z" />
    <glyph glyph-name="uni2215" unicode="&#x2215;" horiz-adv-x="167" 
d="M-105 -33l313 764h64l-313 -764h-64z" />
    <glyph glyph-name="a.superior" horiz-adv-x="296" 
d="M58 628l-6 52c27 16 61 25 98 25c79 0 121 -36 121 -104v-159c0 -18 2 -36 3 -46h-54l-3 43h-2c-13 -28 -45 -47 -92 -47c-60 0 -101 29 -101 87c0 67 43 106 156 106h37v20c0 41 -27 54 -69 54c-37 0 -70 -12 -88 -31zM215 507v36c-9 2 -23 2 -38 2
c-64 0 -95 -18 -95 -58c0 -31 18 -52 56 -52c47 0 77 36 77 72z" />
    <glyph glyph-name="o.superior" horiz-adv-x="314" 
d="M87 548c0 -73 22 -110 70 -110s70 37 70 110c0 74 -22 111 -70 111s-70 -37 -70 -111zM19 548c0 96 46 157 138 157s138 -61 138 -157c0 -95 -46 -156 -138 -156s-138 61 -138 156z" />
    <glyph glyph-name="one.superior" horiz-adv-x="288" 
d="M126 282v352l-58 -60l-29 45l93 82h62v-419h-68z" />
    <glyph glyph-name="two.superior" horiz-adv-x="288" 
d="M20 282v46c115 122 172 205 172 258c0 35 -22 67 -67 67c-26 0 -61 -13 -87 -32l-7 57c39 19 79 27 107 27c78 0 122 -48 122 -106c0 -70 -71 -178 -169 -265h177v-52h-248z" />
    <glyph glyph-name="three.superior" horiz-adv-x="288" 
d="M20 293l5 57c30 -15 61 -24 87 -24c48 0 92 33 92 82c0 38 -33 66 -88 66h-42v48h23c69 0 104 30 104 68c0 40 -33 67 -78 67c-24 0 -57 -9 -83 -24l-6 55c30 12 65 17 104 17c71 0 127 -34 127 -104c0 -57 -36 -89 -84 -98v-2c56 -6 87 -50 87 -103
c0 -66 -48 -120 -147 -120c-37 0 -76 6 -101 15z" />
    <glyph glyph-name="uni2206" unicode="&#x2206;" horiz-adv-x="563" 
d="M28 0v52l212 651h88l208 -650v-53h-508zM105 65h350l-117 358c-15 54 -45 133 -55 179h-4c-8 -40 -35 -111 -50 -166z" />
    <glyph glyph-name="uni2010" unicode="&#x2010;" horiz-adv-x="296" 
d="M40 245v72h216v-72h-216z" />
    </font>
</defs>
</svg>
